<svg width="55" height="36" fill="none" xmlns="http://www.w3.org/2000/svg"><path d="M9.483 14l-.931-3.059H3.867L2.936 14H0L4.535 1.098h3.331L12.42 14H9.483zM7.901 8.656C7.04 5.885 6.554 4.317 6.442 3.954c-.105-.363-.181-.65-.228-.861-.193.75-.747 2.604-1.661 5.563H7.9zM23.715 1.15h2.751L22.098 14h-2.97l-4.36-12.85h2.75l2.418 7.647c.134.451.272.978.413 1.582.146.598.237 1.014.272 1.248.065-.54.284-1.482.66-2.83l2.434-7.647zM35.389 14h-2.725V3.418h-3.489V1.15h9.703v2.268H35.39V14zm19.47-6.442c0 2.127-.528 3.761-1.582 4.904-1.055 1.143-2.567 1.714-4.535 1.714-1.97 0-3.48-.572-4.535-1.714-1.055-1.143-1.583-2.783-1.583-4.922s.528-3.77 1.582-4.895C45.267 1.514 46.785.948 48.76.948c1.975 0 3.484.569 4.527 1.705 1.048 1.137 1.573 2.772 1.573 4.905zm-9.378 0c0 1.435.272 2.516.817 3.243.545.726 1.36 1.09 2.444 1.09 2.174 0 3.26-1.445 3.26-4.333 0-2.895-1.08-4.342-3.243-4.342-1.084 0-1.901.366-2.452 1.098-.55.727-.826 1.808-.826 3.244zM4.64 35L1.74 26.653h-.054c.077 1.24.116 2.402.116 3.487V35H.319v-9.994h2.304l2.775 7.95h.041l2.858-7.95h2.31V35H9.035v-4.942c0-.497.012-1.144.034-1.942.028-.797.05-1.28.069-1.449h-.055L6.082 35H4.64zm19.292-5.01c0 1.626-.408 2.89-1.223 3.793-.811.902-1.962 1.354-3.453 1.354-1.508 0-2.668-.447-3.479-1.34-.807-.898-1.21-2.172-1.21-3.821 0-1.65.406-2.917 1.217-3.801.816-.884 1.978-1.326 3.486-1.326 1.486 0 2.634.448 3.445 1.346.812.898 1.217 2.163 1.217 3.794zm-7.629 0c0 1.23.249 2.164.745 2.802.497.633 1.233.95 2.209.95.97 0 1.702-.314 2.194-.943.497-.63.745-1.566.745-2.81 0-1.226-.246-2.155-.738-2.789-.488-.633-1.217-.95-2.188-.95-.98 0-1.72.317-2.221.95-.497.634-.746 1.563-.746 2.79zM31.351 35h-1.634v-8.593h-2.94v-1.401h7.513v1.401h-2.94V35zm15.17-5.01c0 1.626-.407 2.89-1.223 3.793-.811.902-1.962 1.354-3.452 1.354-1.509 0-2.669-.447-3.48-1.34-.806-.898-1.21-2.172-1.21-3.821 0-1.65.406-2.917 1.217-3.801.816-.884 1.978-1.326 3.486-1.326 1.486 0 2.634.448 3.446 1.346.81.898 1.217 2.163 1.217 3.794zm-7.628 0c0 1.23.248 2.164.745 2.802.497.633 1.233.95 2.208.95.97 0 1.702-.314 2.194-.943.497-.63.745-1.566.745-2.81 0-1.226-.246-2.155-.738-2.789-.488-.633-1.217-.95-2.188-.95-.98 0-1.72.317-2.221.95-.497.634-.745 1.563-.745 2.79z" fill="#48494D"/></svg>